<svg width="904" height="618" viewBox="0 0 904 618" fill="none" xmlns="http://www.w3.org/2000/svg">
<g clip-path="url(#clip0_640_234)">
<path d="M0 37.127L0 580.873C0 601.378 16.6099 618 37.0992 618H866.901C887.39 618 904 601.378 904 580.873V37.127C904 16.6223 887.39 0 866.901 0H37.0992C16.6099 0 0 16.6223 0 37.127Z" fill="#F5F5F5"/>
<path d="M415.069 127.364L396.541 195.376L464.502 213.918L483.03 145.906L415.069 127.364Z" fill="#7F5EDD"/>
<path d="M217.805 385.815C217.805 365.998 201.752 349.934 181.95 349.934C162.148 349.934 146.096 365.998 146.096 385.815C146.096 405.632 162.148 421.697 181.95 421.697C201.752 421.697 217.805 405.632 217.805 385.815Z" fill="#FF6B71"/>
<path d="M414.243 358.323L358.078 491.087L291.745 462.983C255.116 447.474 237.975 405.154 253.496 368.497C268.993 331.84 311.281 314.687 347.911 330.219L414.243 358.323Z" fill="#9BA7FF"/>
<path d="M584.665 337.245L702.279 226.78L743.088 365.043L584.665 337.245Z" fill="#FFD600"/>
<path d="M852.46 102.076L832.666 49.769C829.543 41.4976 820.315 37.3385 812.05 40.4637L693.497 85.3686L852.437 102.076H852.46Z" fill="#7F5EDD"/>
<path d="M425.866 369.672C441.199 406.212 483.229 423.483 519.859 408.256C556.512 393.029 573.934 351.062 558.907 314.381L425.866 369.649V369.672Z" fill="#7F5EDD"/>
<path d="M95.19 430.861L73.0478 408.139L68.4926 439.602L37.1227 434.221L51.9154 462.372L23.4805 476.424L51.9154 490.452L37.1227 518.627L68.4926 513.246L73.0478 544.709L95.19 521.987L117.332 544.709L121.911 513.246L153.281 518.627L138.488 490.452L166.923 476.424L138.488 462.372L153.281 434.221L121.911 439.602L117.332 408.139L95.19 430.861Z" fill="#AFB100"/>
<path d="M624.683 214.136L624.697 214.154C636.945 230.088 659.781 233.068 675.702 220.811L731.665 177.728C747.587 165.471 750.565 142.618 738.317 126.685L738.302 126.666C726.054 110.733 703.219 107.753 687.297 120.01L631.335 163.093C615.413 175.35 612.435 198.202 624.683 214.136Z" fill="#9BA7FF"/>
<path d="M819.373 118.368L729.803 233.306L767.482 262.713L857.052 147.775L819.373 118.368Z" fill="#978500"/>
<path d="M140.338 552.367L151.171 591.887L269.622 559.37L258.788 519.849L140.338 552.367Z" fill="#7F5EDD"/>
<path d="M168.986 501.969L179.819 541.49L258.779 519.813L247.946 480.293L168.986 501.969Z" fill="#7F5EDD"/>
<path d="M197.64 451.594L208.474 491.115L247.965 480.273L237.132 440.753L197.64 451.594Z" fill="#7F5EDD"/>
<path d="M592.883 144.889L506.733 157.743L513.566 203.611L485.718 207.77L492.551 253.638L464.703 257.798L471.747 305.099L557.897 292.222L551.064 246.354L578.912 242.218L572.08 196.35L599.927 192.191L592.883 144.889Z" fill="#FF6B71"/>
<path d="M420.348 286.277L295.737 304.018C292.262 279.58 309.262 256.928 333.681 253.451L414.055 242.007C426.265 240.268 437.583 248.774 439.32 260.993C441.058 273.212 432.558 284.539 420.348 286.277Z" fill="#FFD600"/>
</g>
<defs>
<clipPath id="clip0_640_234">
<rect width="618" height="904" fill="white" transform="matrix(0 -1 1 0 0 618)"/>
</clipPath>
</defs>
</svg>
